<svg width="24" height="24" viewBox="0 0 24 24" fill="none" xmlns="http://www.w3.org/2000/svg">
<path d="M5.0007 13.8297C5.00019 13.6803 5.03317 13.5327 5.09719 13.3977C5.16122 13.2627 5.25468 13.1438 5.3707 13.0497L11.3707 8.21968C11.5496 8.07259 11.7741 7.99219 12.0057 7.99219C12.2373 7.99219 12.4618 8.07259 12.6407 8.21968L18.6407 13.2197C18.8449 13.3894 18.9733 13.6333 18.9977 13.8978C19.0221 14.1622 18.9404 14.4255 18.7707 14.6297C18.601 14.8339 18.3571 14.9623 18.0926 14.9867C17.8282 15.0111 17.5649 14.9294 17.3607 14.7597L12.0007 10.2897L6.6407 14.6097C6.49392 14.732 6.31518 14.8096 6.12563 14.8335C5.93608 14.8574 5.74365 14.8265 5.57113 14.7444C5.3986 14.6624 5.25319 14.5326 5.1521 14.3705C5.05101 14.2084 4.99847 14.0207 5.0007 13.8297Z" fill="#478082"/>
</svg>
