<svg version="1.2" xmlns="http://www.w3.org/2000/svg" viewBox="0 0 60 60" width="60" height="60"><style>.a{fill:#8e008a}</style><path fill-rule="evenodd" class="a" d="m29.9 59.8c-16.5 0-29.9-13.4-29.9-29.9 0-16.5 13.4-29.9 29.9-29.9 16.5 0 29.9 13.4 29.9 29.9 0 16.5-13.4 29.9-29.9 29.9zm0-57.1c-15 0-27.2 12.2-27.2 27.2 0 15 12.2 27.2 27.2 27.2 15 0 27.2-12.2 27.2-27.2 0-15-12.2-27.2-27.2-27.2zm-12.9 27.7q-0.5 0-0.8-0.3l-3.7-3.6q-0.3-0.4-0.3-0.8 0-0.5 0.3-0.8c0.4-0.5 1.1-0.5 1.5-0.1l1.7 1.7c1.3-6.6 7-11.5 13.8-11.5 5.5 0 10.6 3.3 12.8 8.4q0.2 0.5 0 0.9-0.1 0.4-0.5 0.6-0.5 0.2-0.9 0-0.4-0.1-0.6-0.5c-1.9-4.3-6.1-7.1-10.8-7.1-5.7 0-10.5 4.1-11.6 9.5l2.3-2q0.3-0.3 0.8-0.3 0.4 0.1 0.7 0.4 0.3 0.3 0.3 0.8 0 0.5-0.3 0.8l-4 3.6q-0.3 0.3-0.7 0.3zm29.8 2.8q0 0.4-0.3 0.8-0.3 0.3-0.7 0.3-0.1 0-0.1 0-0.4 0-0.7-0.3l-1.8-1.7c-1.2 6.6-6.9 11.5-13.7 11.5-5.5 0-10.6-3.3-12.8-8.4q-0.2-0.4 0-0.9 0.1-0.4 0.5-0.6c0.6-0.2 1.3 0 1.5 0.6 1.9 4.3 6.1 7.1 10.8 7.1 5.7 0 10.4-4.1 11.6-9.6l-2.3 2c-0.4 0.4-1.1 0.4-1.5-0.1q-0.3-0.3-0.3-0.8 0-0.4 0.3-0.7l4-3.6c0.4-0.4 1.1-0.4 1.5 0l3.7 3.6q0.3 0.3 0.3 0.8z"/></svg>