<svg version="1.2" xmlns="http://www.w3.org/2000/svg" viewBox="0 0 60 60" width="60" height="60"><style>.a{fill:#aaa}</style><path fill-rule="evenodd" class="a" d="m28.6 24.5h2.6v14.8h-2.6zm-4-0.1l1.8 14.8-2.6 0.2-1.8-14.8zm10.5 0l2.6 0.2-1.7 14.8-2.6-0.2zm9.8-3h-1l-2.8 20.2c-0.2 1.9-1.8 3.4-3.7 3.4h-15.1c-1.9 0-3.5-1.5-3.7-3.4l-2.9-20.2h-1v-2.6h7.3v-1.1c0-1.6 1.3-2.9 3-2.9h9.7c1.6 0 2.9 1.3 2.9 2.9v1.1h7.3zm-20.3-2.6h10.4v-1.1c0-0.2-0.1-0.3-0.3-0.3h-9.7c-0.2 0-0.4 0.1-0.4 0.3zm13.9 22.5l2.8-19.9h-23l2.9 19.9c0 0.6 0.5 1 1.1 1h15.1c0.6 0 1-0.4 1.1-1zm-8.7 18.4c-16.4 0-29.9-13.4-29.9-29.9 0-16.5 13.5-29.9 29.9-29.9 16.5 0 29.9 13.4 29.9 29.9 0 16.5-13.4 29.9-29.9 29.9zm0-57.1c-15 0-27.2 12.2-27.2 27.2 0 15 12.2 27.2 27.2 27.2 15 0 27.2-12.2 27.2-27.2 0-15-12.2-27.2-27.2-27.2z"/></svg>