<svg width="24" height="46" viewBox="0 0 24 46" fill="none" xmlns="http://www.w3.org/2000/svg">
<path d="M18.9993 32.1703C18.9998 32.3197 18.9668 32.4673 18.9028 32.6023C18.8388 32.7373 18.7453 32.8562 18.6293 32.9503L12.6293 37.7803C12.4504 37.9274 12.2259 38.0078 11.9943 38.0078C11.7627 38.0078 11.5382 37.9274 11.3593 37.7803L5.3593 32.7803C5.15508 32.6106 5.02666 32.3667 5.00228 32.1022C4.9779 31.8378 5.05956 31.5745 5.2293 31.3703C5.39904 31.1661 5.64295 31.0377 5.90738 31.0133C6.1718 30.9889 6.43508 31.0706 6.6393 31.2403L11.9993 35.7103L17.3593 31.3903C17.5061 31.268 17.6848 31.1904 17.8744 31.1665C18.0639 31.1426 18.2563 31.1735 18.4289 31.2556C18.6014 31.3376 18.7468 31.4674 18.8479 31.6295C18.949 31.7916 19.0015 31.9793 18.9993 32.1703Z" fill="#478082"/>
<path d="M5.0007 13.8297C5.00019 13.6803 5.03317 13.5327 5.09719 13.3977C5.16122 13.2627 5.25468 13.1438 5.3707 13.0497L11.3707 8.21968C11.5496 8.07259 11.7741 7.99219 12.0057 7.99219C12.2373 7.99219 12.4618 8.07259 12.6407 8.21968L18.6407 13.2197C18.8449 13.3894 18.9733 13.6333 18.9977 13.8978C19.0221 14.1622 18.9404 14.4255 18.7707 14.6297C18.601 14.8339 18.3571 14.9623 18.0926 14.9867C17.8282 15.0111 17.5649 14.9294 17.3607 14.7597L12.0007 10.2897L6.6407 14.6097C6.49392 14.732 6.31518 14.8096 6.12563 14.8335C5.93608 14.8574 5.74365 14.8265 5.57113 14.7444C5.3986 14.6624 5.25319 14.5326 5.1521 14.3705C5.05101 14.2084 4.99847 14.0207 5.0007 13.8297Z" fill="#478082"/>
</svg>
