<svg version="1.2" xmlns="http://www.w3.org/2000/svg" viewBox="0 0 47 46" width="47" height="46"><style>.a{fill:#fff}</style><path fill-rule="evenodd" class="a" d="m38.8 33h-21.5c-1.4 0-2.6-0.9-3.1-2.2l-8-28.1h-4.5c-0.6 0-1.1-0.4-1.1-1 0-0.6 0.5-1.1 1.1-1.1h6.1l8.5 29.5c0.1 0.5 0.5 0.8 1 0.8h21.5c0.5 0 1-0.4 1.1-0.8l3.5-14h-27.5c-0.6 0-1.1-0.5-1.1-1.1 0-0.6 0.5-1.1 1.1-1.1h1.9v-4.3c0-1.2 1-2.1 2.2-2.1h1v-5.4c0-1.2 1-2.2 2.2-2.2h5.4c1.2 0 2.1 1 2.1 2.2v0.4l4.3-1.8c1.5-0.6 3.3 0 4.1 1.5l4.3 8c0.5 0.8 0.6 1.8 0.3 2.6q-0.3 0.7-0.7 1.1h0.9l0.9-3.5c0.1-0.6 0.7-0.9 1.3-0.8 0.6 0.2 0.9 0.8 0.8 1.4l-1.1 4.2q0 0.1 0 0.1l-3.8 15.3c-0.4 1.4-1.7 2.4-3.2 2.4zm-14.8-25.5q0-0.6 0.2-1.2c0.3-0.8 1-1.5 1.8-1.8l2.6-1.1q0-0.1 0-0.3v-1h-5.4v5.4zm2.8 6.4l-2.1-4.3h-4.7v4.3zm-5.8 32.1c-2.9 0-5.3-2.4-5.3-5.4 0-3 2.4-5.4 5.3-5.4 3 0 5.4 2.4 5.4 5.4 0 3-2.4 5.4-5.4 5.4zm0-8.6c-1.7 0-3.2 1.4-3.2 3.2 0 1.8 1.5 3.2 3.2 3.2 1.8 0 3.3-1.4 3.3-3.2 0-1.8-1.5-3.2-3.3-3.2zm16.2 8.6c-3 0-5.4-2.4-5.4-5.4 0-3 2.4-5.4 5.4-5.4 3 0 5.4 2.4 5.4 5.4 0 3-2.4 5.4-5.4 5.4zm0-8.6c-1.8 0-3.2 1.4-3.2 3.2 0 1.8 1.4 3.2 3.2 3.2 1.8 0 3.2-1.4 3.2-3.2 0-1.8-1.4-3.2-3.2-3.2zm3.7-24.6q0.5-0.2 0.6-0.7 0.2-0.4 0-0.9l-4.4-8c-0.3-0.5-0.8-0.7-1.4-0.5l-9 3.8q-0.4 0.2-0.6 0.6-0.1 0.4 0.1 0.9 0 0 0 0.1l3 5.8h8.8z"/></svg>