<svg xmlns="http://www.w3.org/2000/svg" width="46.344" height="46.094" viewBox="0 0 46.344 46.094">
  <defs>
    <style>
      .cls-1 {
        fill: #fff;
        fill-rule: evenodd;
      }
    </style>
  </defs>
  <path id="シェイプ_9" data-name="シェイプ 9" class="cls-1" d="M719.828,215.044H698.322a3.215,3.215,0,0,1-3.086-2.279l-7.989-28.031h-4.592a1.08,1.08,0,0,1,0-2.159h6.179l8.46,29.55a1.07,1.07,0,0,0,1.028.76h21.506a1.077,1.077,0,0,0,1.045-.818l4.9-19.638a1.077,1.077,0,1,1,2.09.523l-4.9,19.639A3.23,3.23,0,0,1,719.828,215.044ZM702.121,228a5.4,5.4,0,1,1,5.386-5.4A5.4,5.4,0,0,1,702.121,228Zm0-8.637a3.239,3.239,0,1,0,3.231,3.239A3.239,3.239,0,0,0,702.121,219.363ZM718.278,228a5.4,5.4,0,1,1,5.386-5.4A5.4,5.4,0,0,1,718.278,228Zm0-8.637a3.239,3.239,0,1,0,3.232,3.239A3.238,3.238,0,0,0,718.278,219.363Zm7.463-21.275H696.889a1.08,1.08,0,0,1,0-2.159h28.852A1.08,1.08,0,0,1,725.741,198.088Zm-6.462,0a1.08,1.08,0,0,1-.4-2.082l3.132-1.256a1.079,1.079,0,0,0,.546-1.518l-4.372-8.035a1.078,1.078,0,0,0-1.36-.48l-9,3.761a1.08,1.08,0,0,0-.55,1.479l3.277,6.569a1.078,1.078,0,1,1-1.927.966l-3.277-6.569a3.243,3.243,0,0,1,1.649-4.438l9-3.761a3.221,3.221,0,0,1,4.079,1.439l4.372,8.035a3.243,3.243,0,0,1-1.636,4.558l-3.133,1.255A1.06,1.06,0,0,1,719.279,198.088Zm-19.39,0a1.078,1.078,0,0,1-1.077-1.079v-5.4a2.159,2.159,0,0,1,2.154-2.159h5.386a1.08,1.08,0,0,1,0,2.159h-5.386v5.4A1.078,1.078,0,0,1,699.889,198.088Zm3.232-6.478a1.077,1.077,0,0,1-1.077-1.079v-6.478a2.159,2.159,0,0,1,2.154-2.159h5.386a2.159,2.159,0,0,1,2.154,2.159v1.08a1.077,1.077,0,1,1-2.154,0v-1.08H704.2v6.478A1.078,1.078,0,0,1,703.121,191.61Z" transform="translate(-681.562 -181.906)"/>
</svg>
